<svg id="Layer_1" data-name="Layer 1" xmlns="http://www.w3.org/2000/svg" viewBox="0 0 322.39 322.39"><defs><style>.cls-1{fill:#5078f5;}.cls-2{fill:#fff;}</style></defs><title>web</title><circle class="cls-1" cx="161.195" cy="161.195" r="161.195"/><path class="cls-2" d="M131.213,176.711h55.195a8.6,8.6,0,0,0,8.59-8.589V138.369a8.6,8.6,0,0,0-8.59-8.59H131.213a8.6,8.6,0,0,0-8.59,8.59v29.753A8.6,8.6,0,0,0,131.213,176.711ZM191,138.369v29.753a4.6,4.6,0,0,1-4.59,4.589h-5.287V133.779h5.287A4.6,4.6,0,0,1,191,138.369Zm-64.375,0a4.6,4.6,0,0,1,4.59-4.59h45.908v38.932H131.213a4.6,4.6,0,0,1-4.59-4.589Z"/><path class="cls-2" d="M183.457,185.432h-47.7a2,2,0,0,0,0,4h47.7a2,2,0,0,0,0-4Z"/><path class="cls-2" d="M139.729,101.977h42.933a5.976,5.976,0,0,0,0-11.951H139.729a5.976,5.976,0,1,0,0,11.951Zm0-7.951h42.933a1.976,1.976,0,0,1,0,3.951H139.729a1.976,1.976,0,1,1,0-3.951Z"/><path class="cls-2" d="M216.8,86.846h-2.718V80.074a9.139,9.139,0,0,0-9.129-9.129H117.441a9.139,9.139,0,0,0-9.129,9.129v6.772h-2.719a10.013,10.013,0,0,0-10,10v152.6a2,2,0,0,0,2,2H224.8a2,2,0,0,0,2-2V96.848A10.013,10.013,0,0,0,216.8,86.846ZM112.312,80.074a5.135,5.135,0,0,1,5.129-5.129H204.95a5.135,5.135,0,0,1,5.129,5.129v119.47c-31.683.063-86.925.139-97.767.037V80.074ZM99.591,96.848a6.009,6.009,0,0,1,6-6h2.719v156.6H99.591Zm12.721,106.724c4.357.044,14.569.059,27.04.059,23.709,0,55.544-.056,70.727-.087v43.9H112.312ZM222.8,247.445h-8.72V90.846H216.8a6.008,6.008,0,0,1,6,6Z"/></svg>