<svg id="Layer_1" data-name="Layer 1" xmlns="http://www.w3.org/2000/svg" xmlns:xlink="http://www.w3.org/1999/xlink" viewBox="0 0 322.391 322.393"><defs><style>.cls-1{fill:none;}.cls-2{clip-path:url(#clip-path);}.cls-3{fill:url(#Degradado_sin_nombre_25);}.cls-4{fill:#9a72f6;}.cls-5{fill:#fff;}</style><clipPath id="clip-path"><rect class="cls-1" x="-2301.921" y="-561.908" width="1934.248" height="1263.8"/></clipPath><linearGradient id="Degradado_sin_nombre_25" x1="-16.145" y1="-329.966" x2="-1076.608" y2="-624.663" gradientUnits="userSpaceOnUse"><stop offset="0" stop-color="#003699"/><stop offset="0.534" stop-color="#5078f5"/><stop offset="0.893" stop-color="#8873f6"/><stop offset="0.998" stop-color="#9a72f6"/></linearGradient></defs><title>web</title><g class="cls-2"><path class="cls-3" d="M-1594.933-9.167c-169.943-181.338-162.436-468.649,16.723-640.888,51.116-49.143,107.949-407.542,534.98-581.15s836.757,46.72,836.757,46.72c90.774-14.222,186.781,14.858,254.913,86.465,101.982,107.183,105.691,272,14.051,383.43,63.792,232.763.827,492.217-186.264,670.229-158.16,150.484-370.036,209.482-570.309,178.643-164.849-25.384-332.735-30.093-497.557-4.536C-1335.506,152.055-1487.646,105.315-1594.933-9.167Z"/></g><path class="cls-4" d="M322.391,161.2A161.195,161.195,0,0,1,.464,173.518a162.479,162.479,0,0,1,4.109-50.6A161.1,161.1,0,0,1,142.534,1.071a162.71,162.71,0,0,1,51.115,2.2A161.156,161.156,0,0,1,320.517,136.539,162.586,162.586,0,0,1,322.391,161.2Z"/><path class="cls-5" d="M40.747,156.327a2,2,0,0,0,2-2v-14.58H86.406v42.9H73.37c-2.575,0-2.58,4,0,4H88.406a2,2,0,0,0,2-2v-46.9a2,2,0,0,0-2-2H40.747a2,2,0,0,0-2,2v16.58A2,2,0,0,0,40.747,156.327Z"/><path class="cls-5" d="M40.747,186.649h24.97c2.575,0,2.58-4,0-4H42.747v-20.8c0-2.575-4-2.58-4,0v22.8A2,2,0,0,0,40.747,186.649Z"/><path class="cls-5" d="M152.44,135.368H135.86c-2.575,0-2.58,4,0,4h14.58v43.659h-42.9V169.991c0-2.575-4-2.58-4,0v15.036a2,2,0,0,0,2,2h46.9a2,2,0,0,0,2-2V137.368A2,2,0,0,0,152.44,135.368Z"/><path class="cls-5" d="M105.538,164.338a2,2,0,0,0,2-2v-22.97h20.8c2.575,0,2.58-4,0-4h-22.8a2,2,0,0,0-2,2v24.97A2,2,0,0,0,105.538,164.338Z"/><path class="cls-5" d="M217.231,186.649a2,2,0,0,0,2-2v-16.58c0-2.576-4-2.581-4,0v14.58H171.573v-42.9h13.035c2.575,0,2.58-4,0-4H169.573a2,2,0,0,0-2,2v46.9a2,2,0,0,0,2,2Z"/><path class="cls-5" d="M192.262,139.747h22.969v20.8c0,2.575,4,2.58,4,0v-22.8a2,2,0,0,0-2-2H192.262C189.687,135.747,189.682,139.747,192.262,139.747Z"/><path class="cls-5" d="M231.346,154.305a2.83,2.83,0,0,0,2.83-2.83V130.844h61.778v60.708H277.508c-3.649,0-3.649,5.66,0,5.66h21.276a2.83,2.83,0,0,0,2.83-2.83V128.014a2.83,2.83,0,0,0-2.83-2.83H231.346a2.83,2.83,0,0,0-2.83,2.83v23.461A2.83,2.83,0,0,0,231.346,154.305Z"/><path class="cls-5" d="M231.346,197.212h35.332c3.649,0,3.65-5.66,0-5.66h-32.5V162.114c0-3.649-5.66-3.649-5.66,0v32.268A2.83,2.83,0,0,0,231.346,197.212Z"/><path class="cls-5" d="M252.041,176.612a2.856,2.856,0,0,0,4,0l9.111-9.111,9.112,9.111c2.592,2.592,6.575-1.43,4-4l-8.519-8.518,10.4-6.076a2.83,2.83,0,1,0-2.855-4.887l-9.312,5.439V147.784c0-3.648-5.66-3.649-5.66,0V158.7l-9.542-5.289a2.83,2.83,0,0,0-2.744,4.95l10.46,5.8-8.456,8.456A2.828,2.828,0,0,0,252.041,176.612Z"/><path class="cls-5" d="M205.83,155.879a2,2,0,0,0-2.735-.718l-6.581,3.844v-7.621c0-2.575-4-2.58-4,0v7.71l-6.745-3.737a2,2,0,0,0-1.939,3.5l7.393,4.1-5.976,5.976a2,2,0,0,0,0,2.829,2.024,2.024,0,0,0,2.828,0l6.439-6.439,6.438,6.439a2.024,2.024,0,0,0,2.828,0,2,2,0,0,0,0-2.829l-6.019-6.019,7.351-4.294A2,2,0,0,0,205.83,155.879Z"/><path class="cls-5" d="M128.1,151.384v7.71l-6.744-3.737a2,2,0,0,0-1.939,3.5l7.392,4.1-5.976,5.976a2,2,0,0,0,0,2.829,2.024,2.024,0,0,0,2.828,0l6.439-6.439,6.439,6.439a2.024,2.024,0,0,0,2.828,0,2,2,0,0,0,0-2.829l-6.02-6.02,7.351-4.293a2,2,0,0,0-2.017-3.454l-6.581,3.844v-7.621C132.1,148.809,128.1,148.8,128.1,151.384Z"/><path class="cls-5" d="M54.2,171.757a2.024,2.024,0,0,0,2.828,0l6.439-6.439,6.439,6.439a2.024,2.024,0,0,0,2.828,0,2,2,0,0,0,0-2.829l-6.02-6.02,7.351-4.293a2,2,0,0,0-2.017-3.454l-6.581,3.844v-7.621c0-2.575-4-2.58-4,0v7.71l-6.743-3.737a2,2,0,0,0-1.94,3.5l7.392,4.1L54.2,168.928A2,2,0,0,0,54.2,171.757Z"/></svg>