<svg id="Layer_1" data-name="Layer 1" xmlns="http://www.w3.org/2000/svg" xmlns:xlink="http://www.w3.org/1999/xlink" viewBox="0 0 105.416 146.013"><defs><style>.cls-1{fill:#dfdaf2;}.cls-2{fill:url(#Degradado_sin_nombre_98);}.cls-3{fill:url(#Degradado_sin_nombre_98-2);}.cls-4{fill:url(#Degradado_sin_nombre_98-3);}.cls-5{fill:url(#Degradado_sin_nombre_98-4);}</style><linearGradient id="Degradado_sin_nombre_98" x1="4127.73" y1="6084.64" x2="4127.71" y2="6089.445" gradientTransform="matrix(74.51, 0, 0, -34.07, -307498.186, 207509.326)" gradientUnits="userSpaceOnUse"><stop offset="0" stop-color="#003699"/><stop offset="0.534" stop-color="#5078f5"/><stop offset="0.893" stop-color="#8873f5"/><stop offset="0.998" stop-color="#9a72f6"/></linearGradient><linearGradient id="Degradado_sin_nombre_98-2" x1="4127.74" y1="6056.78" x2="4127.72" y2="6060.71" gradientTransform="matrix(74.51, 0, 0, -41.661, -307498.441, 252537.176)" xlink:href="#Degradado_sin_nombre_98"/><linearGradient id="Degradado_sin_nombre_98-3" x1="3814.921" y1="6367.099" x2="3814.789" y2="6381.296" gradientTransform="matrix(11.297, 0, 0, -11.298, -43037.14, 72140.205)" xlink:href="#Degradado_sin_nombre_98"/><linearGradient id="Degradado_sin_nombre_98-4" x1="4136.511" y1="5993.461" x2="4136.494" y2="5995.164" gradientTransform="matrix(88.389, 0, 0, -96.134, -365558.414, 576381.228)" xlink:href="#Degradado_sin_nombre_98"/></defs><title>web</title><circle id="Elipse_3" data-name="Elipse 3" class="cls-1" cx="39.056" cy="39.056" r="39.056"/><g id="Grupo_230" data-name="Grupo 230"><path id="Trazado_556" data-name="Trazado 556" class="cls-2" d="M94.372,134.2a9.047,9.047,0,0,1-8.894,9.172H34.032a9.047,9.047,0,0,1-8.894-9.172V114.992H22.5V134.2a11.686,11.686,0,0,0,11.53,11.809H85.478A11.685,11.685,0,0,0,97.011,134.2V111.943H94.375Z"/><path id="Trazado_557" data-name="Trazado 557" class="cls-3" d="M25.138,23.538a9.046,9.046,0,0,1,8.894-9.172H85.478a9.046,9.046,0,0,1,8.894,9.172V48.511h2.639V23.538a11.684,11.684,0,0,0-11.53-11.809H34.032A11.685,11.685,0,0,0,22.5,23.538V53.39h2.636Z"/><path id="Trazado_558" data-name="Trazado 558" class="cls-4" d="M65.4,126.017a5.649,5.649,0,1,0-5.647,5.766A5.714,5.714,0,0,0,65.4,126.017Zm-8.658,0a3.013,3.013,0,1,1,3.011,3.129A3.076,3.076,0,0,1,56.744,126.017Z"/><path id="Trazado_559" data-name="Trazado 559" class="cls-5" d="M92.579,52.885H78.257c7.7-6.917,8.736-19.853,8.784-20.557V26.341a9.35,9.35,0,0,0-9.23-9.445A9.066,9.066,0,0,0,71.347,19.6a9.5,9.5,0,0,0-2.765,6.8c.022,3.783-.064,5.317-.13,5.873C67.3,38.959,61.269,44.017,57.777,46.437a15.26,15.26,0,0,0-5.82,7.979,17.6,17.6,0,0,1-7.5,9.255A9.383,9.383,0,0,0,36.1,58.526H33.676A9.388,9.388,0,0,0,24.382,66.7H17.37v2.637H24.3v33.843H17.027v2.636h7.531a9.39,9.39,0,0,0,9.118,7.216H36.1a9.39,9.39,0,0,0,9.068-7.02l7.79,1.3a44.685,44.685,0,0,0,7.313.606H92.577a13.013,13.013,0,0,0,12.838-13.152V66.034A13.013,13.013,0,0,0,92.579,52.885ZM42.844,103.654A6.752,6.752,0,0,1,36.1,110.4H33.678a6.752,6.752,0,0,1-6.744-6.744V67.912a6.753,6.753,0,0,1,6.744-6.745H36.1a6.753,6.753,0,0,1,6.744,6.745Zm59.936-8.887a10.373,10.373,0,0,1-10.2,10.515H88.311a10.373,10.373,0,0,1-10.2-10.515V82.784H75.474V94.767a13.234,13.234,0,0,0,5.16,10.515H60.271a42.068,42.068,0,0,1-6.88-.57l-7.91-1.318V67.912a9.307,9.307,0,0,0-.157-1.666,20.24,20.24,0,0,0,9.15-11.039,12.627,12.627,0,0,1,4.805-6.6c3.831-2.655,10.454-8.249,11.781-15.945a61.915,61.915,0,0,0,.159-6.272,6.882,6.882,0,0,1,2-4.931,6.443,6.443,0,0,1,4.6-1.928,6.709,6.709,0,0,1,6.593,6.808v5.89c-.012.159-1.28,15.907-10.958,20.8l-1.6.81.921.945c.043,1.391.057,6.441-.018,17.14a32.561,32.561,0,0,1-1.629,10.207C68.977,88.48,64.877,91.7,58.94,91.7v2.636c7.09,0,12.168-3.927,14.685-11.358a35.13,35.13,0,0,0,1.768-11.036c.07-9.763.1-14.258.034-16.418h17.16a10.373,10.373,0,0,1,10.2,10.515Z"/></g></svg>