<svg id="Layer_1" data-name="Layer 1" xmlns="http://www.w3.org/2000/svg" xmlns:xlink="http://www.w3.org/1999/xlink" viewBox="0 0 322.391 322.393"><defs><style>.cls-1{fill:none;}.cls-2{clip-path:url(#clip-path);}.cls-3{fill:url(#Degradado_sin_nombre_25);}.cls-4{fill:#9a72f6;}.cls-5{fill:#fff;}</style><clipPath id="clip-path"><rect class="cls-1" x="-2284.129" y="-174.396" width="1934.248" height="1263.8"/></clipPath><linearGradient id="Degradado_sin_nombre_25" x1="1.647" y1="57.545" x2="-1058.816" y2="-237.152" gradientUnits="userSpaceOnUse"><stop offset="0" stop-color="#003699"/><stop offset="0.534" stop-color="#5078f5"/><stop offset="0.893" stop-color="#8873f6"/><stop offset="0.998" stop-color="#9a72f6"/></linearGradient></defs><title>web</title><g class="cls-2"><path class="cls-3" d="M-1577.141,378.345c-169.943-181.339-162.436-468.65,16.723-640.889,51.116-49.142,107.949-407.542,534.98-581.149s836.757,46.72,836.757,46.72C-97.907-811.195-1.9-782.116,66.232-710.508c101.982,107.182,105.691,272,14.051,383.429,63.792,232.764.827,492.217-186.264,670.229C-264.141,493.635-476.017,552.632-676.29,521.794c-164.849-25.384-332.735-30.094-497.558-4.536C-1317.714,539.566-1469.854,492.826-1577.141,378.345Z"/></g><path class="cls-4" d="M322.391,161.2A161.195,161.195,0,0,1,.464,173.518a162.479,162.479,0,0,1,4.109-50.6A161.1,161.1,0,0,1,142.534,1.071a162.71,162.71,0,0,1,51.115,2.2A161.156,161.156,0,0,1,320.517,136.539,162.586,162.586,0,0,1,322.391,161.2Z"/><path class="cls-5" d="M219.727,108.013H102.665a17.865,17.865,0,0,0-16.18,10.349,1.982,1.982,0,0,0-.813-.893l-1.656-.957a2,2,0,0,0-2,3.465l1.658.957a1.983,1.983,0,0,0,1.824.073,17.758,17.758,0,0,0-.691,4.864v35.755a1.982,1.982,0,0,0-1.354-.537H72.013c-2.575,0-2.58,4,0,4h11.44a1.987,1.987,0,0,0,1.354-.537v31.973a17.878,17.878,0,0,0,17.858,17.857H219.727a17.877,17.877,0,0,0,17.857-17.857V125.871A17.877,17.877,0,0,0,219.727,108.013Zm13.857,88.512a13.765,13.765,0,0,1-.193,2.209,1.982,1.982,0,0,0-.753-.782l-8-4.618a2,2,0,1,0-2,3.464l8,4.618a2,2,0,0,0,2.054-.042,13.868,13.868,0,0,1-12.965,9.008H102.665a13.829,13.829,0,0,1-10.809-5.208,1.945,1.945,0,0,0,1.341-.224l8.445-4.876a2,2,0,1,0-2-3.464L91.2,201.486a1.985,1.985,0,0,0-.926,1.2,13.746,13.746,0,0,1-1.464-6.16V125.871a13.874,13.874,0,0,1,13.858-13.858H219.727a13.873,13.873,0,0,1,13.857,13.858Z"/><path class="cls-5" d="M92.949,187.861c-2.575,0-2.58,4,0,4H229.443c2.575,0,2.58-4,0-4Z"/><path class="cls-5" d="M160.513,183.672A22.48,22.48,0,0,0,180.979,151.9a2,2,0,0,0-2.065-1.157,1.992,1.992,0,0,0,.344-.776L181,148.318a2,2,0,1,0-2.752-2.9l-.922.873a22.467,22.467,0,1,0-16.812,37.385Zm0-40.948a18.492,18.492,0,0,1,13.905,6.317L153.6,168.76l-6.824-5.687a2,2,0,0,0-2.561,3.074l8.19,6.824a2.023,2.023,0,0,0,2.656-.085l22.441-21.26a1.989,1.989,0,0,0-.168,1.931,18.476,18.476,0,1,1-16.825-10.833Z"/><path class="cls-5" d="M159.3,65.61a2,2,0,0,0,2-2V56.78c0-2.575-4-2.58-4,0v6.83A2,2,0,0,0,159.3,65.61Z"/><path class="cls-5" d="M159.3,92.185a2,2,0,0,0,2-2V72.016c0-2.575-4-2.58-4,0V90.185A2,2,0,0,0,159.3,92.185Z"/><path class="cls-5" d="M109.032,78.63a2,2,0,0,0,3.465-2l-3.415-5.915a2,2,0,0,0-3.465,2Z"/><path class="cls-5" d="M122.319,101.644a2,2,0,0,0,3.465-2L116.7,83.909a2,2,0,0,0-3.465,2Z"/><path class="cls-5" d="M75.735,116.042a2,2,0,0,0,1-3.732L70.822,108.9a2,2,0,1,0-2,3.465l5.915,3.414A1.989,1.989,0,0,0,75.735,116.042Z"/><path class="cls-5" d="M91.324,125.35l6.427,3.711a2.021,2.021,0,0,0,2.733-.732,2,2,0,0,0-.733-2.732l-6.427-3.711a2,2,0,1,0-2,3.464Z"/><path class="cls-5" d="M63.608,161.089H56.779c-2.575,0-2.58,4,0,4h6.829C66.183,165.089,66.188,161.089,63.608,161.089Z"/><path class="cls-5" d="M76.628,209.9l-5.915,3.414a2,2,0,1,0,2,3.464l5.915-3.415a2,2,0,1,0-2-3.463Z"/><path class="cls-5" d="M115.04,244.925a2,2,0,0,0-2.733.732l-3.414,5.915a2,2,0,0,0,.733,2.732,2.02,2.02,0,0,0,2.732-.733l3.414-5.914A2,2,0,0,0,115.04,244.925Z"/><path class="cls-5" d="M163.087,256.785a2,2,0,0,0-2,2v6.83c0,2.575,4,2.58,4,0v-6.83A2,2,0,0,0,163.087,256.785Z"/><path class="cls-5" d="M213.36,243.766a2,2,0,0,0-3.465,2l3.415,5.914a2.02,2.02,0,0,0,2.732.732,2,2,0,0,0,.733-2.732Z"/><path class="cls-5" d="M200.073,220.751a2,2,0,0,0-3.465,2l4.417,7.651a10.8,10.8,0,0,0-4.341-.91H126.26l2.8-4.85a2,2,0,0,0-3.465-2l-4.013,6.951a1.975,1.975,0,0,0-.255.828,10.867,10.867,0,0,0,4.381,20.815h70.976a10.972,10.972,0,0,0,10.827-11.761,1.985,1.985,0,0,0,1.646-2.989Zm-3.389,26.485H125.708a6.872,6.872,0,1,1,0-13.744h35.4a1.992,1.992,0,0,0-.023.221v11.432c0,2.575,4,2.58,4,0V233.713a1.992,1.992,0,0,0-.022-.221h31.619a6.872,6.872,0,0,1,0,13.744Z"/><path class="cls-5" d="M253.57,210.037l-5.915-3.415a2,2,0,1,0-2,3.464l5.915,3.415a2.021,2.021,0,0,0,2.732-.732A2,2,0,0,0,253.57,210.037Z"/><path class="cls-5" d="M265.613,157.306h-6.829c-2.575,0-2.58,4,0,4h6.829C268.188,161.306,268.193,157.306,265.613,157.306Z"/><path class="cls-5" d="M252.378,159.306a2,2,0,0,0-2-2h-8.09c-2.575,0-2.581,4,0,4h8.09A2,2,0,0,0,252.378,159.306Z"/><path class="cls-5" d="M244.765,112.766a1.989,1.989,0,0,0,1-.268l5.915-3.415a2,2,0,1,0-2-3.464l-5.915,3.414a2,2,0,0,0,1,3.733Z"/><path class="cls-5" d="M221.751,126.054a2,2,0,0,0,1-.269l5.761-3.326a2,2,0,1,0-2-3.464l-5.761,3.326a2,2,0,0,0,1,3.733Z"/><path class="cls-5" d="M210.034,68.824l-3.414,5.914a2,2,0,0,0,3.464,2l3.415-5.915a2,2,0,0,0-3.465-2Z"/><path class="cls-5" d="M194.064,100.485a2.02,2.02,0,0,0,2.732-.732l9.085-15.735a2,2,0,1,0-3.464-2l-9.085,15.735A2,2,0,0,0,194.064,100.485Z"/></svg>