<svg id="Layer_1" data-name="Layer 1" xmlns="http://www.w3.org/2000/svg" xmlns:xlink="http://www.w3.org/1999/xlink" viewBox="0 0 290.909 290.893"><defs><style>.cls-1{fill:url(#Degradado_sin_nombre_13);}.cls-2{fill:url(#Degradado_sin_nombre_13-2);}.cls-3{fill:#fff;}.cls-4{fill:url(#Degradado_sin_nombre_13-3);}.cls-5{fill:url(#Degradado_sin_nombre_13-4);}.cls-6{fill:url(#Degradado_sin_nombre_13-5);}.cls-7{fill:url(#Degradado_sin_nombre_13-6);}.cls-8{fill:url(#Degradado_sin_nombre_13-7);}</style><linearGradient id="Degradado_sin_nombre_13" x1="164.196" y1="401.611" x2="148.24" y2="121.841" gradientUnits="userSpaceOnUse"><stop offset="0" stop-color="#003699"/><stop offset="0.152" stop-color="#2050bd"/><stop offset="0.307" stop-color="#3a66dc"/><stop offset="0.44" stop-color="#4a73ee"/><stop offset="0.534" stop-color="#5078f5"/><stop offset="0.759" stop-color="#7275f5"/><stop offset="0.998" stop-color="#9a72f6"/></linearGradient><linearGradient id="Degradado_sin_nombre_13-2" x1="161.011" y1="401.792" x2="145.055" y2="122.023" xlink:href="#Degradado_sin_nombre_13"/><linearGradient id="Degradado_sin_nombre_13-3" x1="273.702" y1="395.365" x2="257.745" y2="115.596" xlink:href="#Degradado_sin_nombre_13"/><linearGradient id="Degradado_sin_nombre_13-4" x1="152.548" y1="402.275" x2="136.592" y2="122.506" xlink:href="#Degradado_sin_nombre_13"/><linearGradient id="Degradado_sin_nombre_13-5" x1="46.053" y1="408.349" x2="30.097" y2="128.58" xlink:href="#Degradado_sin_nombre_13"/><linearGradient id="Degradado_sin_nombre_13-6" x1="161.003" y1="401.793" x2="145.046" y2="122.023" xlink:href="#Degradado_sin_nombre_13"/><linearGradient id="Degradado_sin_nombre_13-7" x1="157.682" y1="401.982" x2="141.726" y2="122.213" xlink:href="#Degradado_sin_nombre_13"/></defs><title>web</title><path class="cls-1" d="M139.9,36.255l.551,23.289a2.858,2.858,0,0,0,2.857,2.792h.068a2.858,2.858,0,0,0,2.79-2.926l-.55-23.295a18.217,18.217,0,1,0-5.716.141Zm2.139-30.534c.1,0,.2,0,.3,0a12.48,12.48,0,1,1-.3,0Z"/><path class="cls-2" d="M250.168,44.647a18.2,18.2,0,0,1-23.99,27.22l-26,28.12a71.032,71.032,0,0,1-3.96,95.02l27.65,26.13a18.205,18.205,0,1,1,10.65,32.97h-.14a18.2,18.2,0,0,1-14.56-28.94l-27.77-26.23a70.971,70.971,0,0,1-95.88-2.23l-25.68,28.08a18.2,18.2,0,0,1-14.53,29.05h-.09a18.211,18.211,0,1,1,10.53-33.06l25.79-28.18a70.99,70.99,0,0,1,1.36-96.05l-28.61-25.1a18.2,18.2,0,1,1,3.95-4.14l28.74,25.22a71.018,71.018,0,0,1,98.7,3.2l25.85-27.96a18.2,18.2,0,0,1,27.99-23.12Zm-4.48,21.63a12.5,12.5,0,0,0-8.4-21.51h-.26a12.5,12.5,0,1,0,8.66,21.51Zm-2.4,178.52a12.5,12.5,0,1,0-17.68-.14A12.524,12.524,0,0,0,243.288,244.8Zm-32.5-99.49a65.46,65.46,0,1,0-65.46,65.46A65.527,65.527,0,0,0,210.788,145.307Zm-147.9-79.64a12.5,12.5,0,1,0-17.67.31A12.445,12.445,0,0,0,62.888,65.667Zm1.86,178.75a12.5,12.5,0,0,0-17.76-17.59,12.5,12.5,0,0,0,8.88,21.29h.06A12.378,12.378,0,0,0,64.748,244.417Z"/><path class="cls-3" d="M243.428,227.117a12.519,12.519,0,1,1-8.91-3.72A12.524,12.524,0,0,1,243.428,227.117Z"/><circle class="cls-3" cx="145.328" cy="145.307" r="65.46"/><path class="cls-4" d="M272.7,128.877a18.216,18.216,0,0,1-.25,36.43h-.26a18.226,18.226,0,0,1-17.68-15h-23.24a2.855,2.855,0,0,1,0-5.71h23.14A18.2,18.2,0,0,1,272.7,128.877Zm12.24,18.39a12.5,12.5,0,0,0-12.32-12.67h-.18a12.511,12.511,0,0,0-12.49,12.19,3,3,0,0,1,.09.67,2.573,2.573,0,0,1-.06.55,12.482,12.482,0,0,0,12.29,11.58,12.644,12.644,0,0,0,8.89-3.53A12.452,12.452,0,0,0,284.938,147.267Z"/><path class="cls-3" d="M272.618,134.6a12.5,12.5,0,0,1,8.54,21.46,12.644,12.644,0,0,1-8.89,3.53,12.482,12.482,0,0,1-12.29-11.58,2.573,2.573,0,0,0,.06-.55,3,3,0,0,0-.09-.67,12.511,12.511,0,0,1,12.49-12.19Z"/><path class="cls-5" d="M147.578,254.387a18.212,18.212,0,0,1-2.44,36.26h-.03a18.213,18.213,0,0,1-3.25-36.13l-.55-23.24a2.861,2.861,0,0,1,5.72-.14Zm10.06,18.06a12.518,12.518,0,0,0-12.45-12.52,1.861,1.861,0,0,1-.34.04h-.07c-.06,0-.12-.01-.18-.01a12.491,12.491,0,0,0,.52,24.97h.02a12.5,12.5,0,0,0,12.5-12.48Z"/><path class="cls-3" d="M145.188,259.927a12.5,12.5,0,0,1-.05,25h-.02a12.491,12.491,0,0,1-.52-24.97c.06,0,.12.01.18.01h.07A1.861,1.861,0,0,0,145.188,259.927Z"/><path class="cls-6" d="M59.492,150.924h.013a2.859,2.859,0,0,0,.013-5.718L36.349,145.1A18.207,18.207,0,0,0,5.194,133.971a18.218,18.218,0,0,0,13.02,30.956h.2a18.178,18.178,0,0,0,17.533-14.112ZM27.153,155.45a12.424,12.424,0,0,1-8.8,3.758h-.14a12.5,12.5,0,0,1-.136-25,12.293,12.293,0,0,1,8.878,3.562,12.5,12.5,0,0,1,.2,17.676Z"/><path class="cls-7" d="M145.331,105.077a22.031,22.031,0,0,0-22.007,22.006q0,.315.009.626a2.859,2.859,0,0,0,2.856,2.769h.091a2.858,2.858,0,0,0,2.767-2.947c0-.148,0-.3,0-.447a16.289,16.289,0,1,1,16.591,16.287c-.052,0-.1.014-.151.018s-.1-.015-.151-.015a2.858,2.858,0,0,0-2.859,2.858v21.276a2.859,2.859,0,1,0,5.717,0V148.9a22,22,0,0,0-2.858-43.822Z"/><path class="cls-8" d="M145.331,179.9a5.518,5.518,0,1,0,5.518,5.518A5.525,5.525,0,0,0,145.331,179.9Zm-.2,5.518a.2.2,0,0,1,.4,0C145.53,185.634,145.131,185.634,145.131,185.413Z"/></svg>