<svg xmlns="http://www.w3.org/2000/svg" xmlns:xlink="http://www.w3.org/1999/xlink" width="918.572" height="1155.82" viewBox="0 0 918.572 1155.82">
  <defs>
    <linearGradient id="linear-gradient" x1="0.736" y1="0.175" x2="0.334" y2="0.663" gradientUnits="objectBoundingBox">
      <stop offset="0.055" stop-color="#5078f5"/>
      <stop offset="0.577" stop-color="#8874f5"/>
      <stop offset="0.998" stop-color="#b972f6"/>
    </linearGradient>
    <linearGradient id="linear-gradient-3" x1="-0.333" y1="-1.045" x2="-0.735" y2="-0.557" xlink:href="#linear-gradient"/>
  </defs>
  <g id="Símbolo_4_1" data-name="Símbolo 4 – 1" transform="translate(-23.775 -3836.705)">
    <path id="Trazado_436" data-name="Trazado 436" d="M467.056,6005.228,441.6,6030.68a11.286,11.286,0,0,1-15.96,0h0a11.287,11.287,0,0,1,0-15.96l13.9-13.894a11.285,11.285,0,0,0,0-15.959l-1.121-1.121a11.285,11.285,0,0,0-15.96,0L308.734,6093.983a11.284,11.284,0,0,0,0,15.959l1.121,1.121a11.284,11.284,0,0,0,15.959,0l43-43.188a11.283,11.283,0,0,1,15.959,0h0a11.283,11.283,0,0,1,0,15.959l-44.288,44.478a11.285,11.285,0,0,0,0,15.96l1.121,1.121a11.284,11.284,0,0,0,15.959,0l126.571-123.085a11.286,11.286,0,0,0,0-15.959l-1.121-1.121A11.283,11.283,0,0,0,467.056,6005.228Z" transform="translate(-16.432 -1156.174)" fill="url(#linear-gradient)"/>
    <path id="Trazado_438" data-name="Trazado 438" d="M390.351,5369.778l-70.438,70.438a31.23,31.23,0,0,1-44.166,0h0a31.232,31.232,0,0,1,0-44.167L314.2,5357.6a31.232,31.232,0,0,0,0-44.167l-3.1-3.1a31.233,31.233,0,0,0-44.166,0L-47.788,5615.4a31.23,31.23,0,0,0,0,44.167l3.1,3.1a31.229,31.229,0,0,0,44.166,0L118.474,5543.15a31.228,31.228,0,0,1,44.165,0h0a31.23,31.23,0,0,1,0,44.167L40.077,5710.407a31.23,31.23,0,0,0,0,44.167l3.1,3.1a31.23,31.23,0,0,0,44.166,0L437.62,5417.048a31.229,31.229,0,0,0,0-44.166l-3.1-3.1A31.23,31.23,0,0,0,390.351,5369.778Z" transform="translate(80.711 -1191.157)" fill="url(#linear-gradient)"/>
    <path id="Trazado_439" data-name="Trazado 439" d="M685.832,5231.107l43.305-43.306a19.2,19.2,0,0,1,27.152,0h0a19.2,19.2,0,0,1,0,27.154L732.65,5238.6a19.2,19.2,0,0,0,0,27.154l1.908,1.907a19.2,19.2,0,0,0,27.154,0L955.2,5080.1a19.2,19.2,0,0,0,0-27.154l-1.908-1.907a19.2,19.2,0,0,0-27.154,0l-73.158,73.481a19.2,19.2,0,0,1-27.154,0h0a19.2,19.2,0,0,1,0-27.153l75.353-75.676a19.2,19.2,0,0,0,0-27.153l-1.909-1.908a19.2,19.2,0,0,0-27.153,0L656.771,5202.046a19.2,19.2,0,0,0,0,27.153l1.908,1.908A19.2,19.2,0,0,0,685.832,5231.107Z" transform="translate(-18.476 -1150.3)" fill="url(#linear-gradient-3)"/>
  </g>
</svg>
