<svg id="Layer_1" data-name="Layer 1" xmlns="http://www.w3.org/2000/svg" xmlns:xlink="http://www.w3.org/1999/xlink" viewBox="0 0 267.597 234.965"><defs><style>.cls-1{fill:url(#Degradado_sin_nombre_13);}.cls-2{fill:url(#Degradado_sin_nombre_13-2);}.cls-3{fill:url(#Degradado_sin_nombre_13-3);}.cls-4{fill:url(#Degradado_sin_nombre_13-4);}.cls-5{fill:url(#Degradado_sin_nombre_13-5);}.cls-6{fill:url(#Degradado_sin_nombre_13-6);}.cls-7{fill:url(#Degradado_sin_nombre_13-7);}.cls-8{fill:url(#Degradado_sin_nombre_13-8);}.cls-9{fill:url(#Degradado_sin_nombre_13-9);}.cls-10{fill:url(#Degradado_sin_nombre_13-10);}.cls-11{fill:url(#Degradado_sin_nombre_13-11);}.cls-12{fill:url(#Degradado_sin_nombre_13-12);}.cls-13{fill:url(#Degradado_sin_nombre_13-13);}.cls-14{fill:url(#Degradado_sin_nombre_13-14);}.cls-15{fill:url(#Degradado_sin_nombre_13-15);}.cls-16{fill:url(#Degradado_sin_nombre_13-16);}.cls-17{fill:url(#Degradado_sin_nombre_13-17);}</style><linearGradient id="Degradado_sin_nombre_13" x1="131.378" y1="279.87" x2="122.901" y2="105.487" gradientUnits="userSpaceOnUse"><stop offset="0" stop-color="#003699"/><stop offset="0.152" stop-color="#2050bd"/><stop offset="0.307" stop-color="#3a66dc"/><stop offset="0.44" stop-color="#4a73ee"/><stop offset="0.534" stop-color="#5078f5"/><stop offset="0.759" stop-color="#7275f5"/><stop offset="0.998" stop-color="#9a72f6"/></linearGradient><linearGradient id="Degradado_sin_nombre_13-2" x1="131.817" y1="279.849" x2="123.34" y2="105.465" xlink:href="#Degradado_sin_nombre_13"/><linearGradient id="Degradado_sin_nombre_13-3" x1="178.296" y1="277.589" x2="169.819" y2="103.206" xlink:href="#Degradado_sin_nombre_13"/><linearGradient id="Degradado_sin_nombre_13-4" x1="103.878" y1="281.207" x2="95.401" y2="106.824" xlink:href="#Degradado_sin_nombre_13"/><linearGradient id="Degradado_sin_nombre_13-5" x1="46.02" y1="284.019" x2="37.543" y2="109.636" xlink:href="#Degradado_sin_nombre_13"/><linearGradient id="Degradado_sin_nombre_13-6" x1="44.839" y1="284.077" x2="36.362" y2="109.694" xlink:href="#Degradado_sin_nombre_13"/><linearGradient id="Degradado_sin_nombre_13-7" x1="127.864" y1="280.041" x2="119.387" y2="105.658" xlink:href="#Degradado_sin_nombre_13"/><linearGradient id="Degradado_sin_nombre_13-8" x1="167.577" y1="278.11" x2="159.1" y2="103.727" xlink:href="#Degradado_sin_nombre_13"/><linearGradient id="Degradado_sin_nombre_13-9" x1="99.924" y1="281.399" x2="91.447" y2="107.016" xlink:href="#Degradado_sin_nombre_13"/><linearGradient id="Degradado_sin_nombre_13-10" x1="42.066" y1="284.211" x2="33.589" y2="109.828" xlink:href="#Degradado_sin_nombre_13"/><linearGradient id="Degradado_sin_nombre_13-11" x1="40.885" y1="284.269" x2="32.408" y2="109.886" xlink:href="#Degradado_sin_nombre_13"/><linearGradient id="Degradado_sin_nombre_13-12" x1="123.91" y1="280.233" x2="115.433" y2="105.85" xlink:href="#Degradado_sin_nombre_13"/><linearGradient id="Degradado_sin_nombre_13-13" x1="165.878" y1="278.193" x2="157.401" y2="103.81" xlink:href="#Degradado_sin_nombre_13"/><linearGradient id="Degradado_sin_nombre_13-14" x1="95.97" y1="281.591" x2="87.493" y2="107.208" xlink:href="#Degradado_sin_nombre_13"/><linearGradient id="Degradado_sin_nombre_13-15" x1="38.112" y1="284.404" x2="29.635" y2="110.021" xlink:href="#Degradado_sin_nombre_13"/><linearGradient id="Degradado_sin_nombre_13-16" x1="36.931" y1="284.461" x2="28.454" y2="110.078" xlink:href="#Degradado_sin_nombre_13"/><linearGradient id="Degradado_sin_nombre_13-17" x1="137.676" y1="279.564" x2="129.199" y2="105.181" xlink:href="#Degradado_sin_nombre_13"/></defs><title>web</title><path class="cls-1" d="M8.477,8.776a.283.283,0,0,1,.282-.283H58.772V63.412H8.759a.283.283,0,0,1-.282-.283V8.776Zm222.089,0V63.129a.283.283,0,0,1-.283.283H67.248V8.493H230.283a.283.283,0,0,1,.283.283ZM8.759,71.905H230.283a8.778,8.778,0,0,0,8.76-8.776V8.776A8.778,8.778,0,0,0,230.283,0H8.759A8.777,8.777,0,0,0,0,8.776V63.129a8.777,8.777,0,0,0,8.759,8.776Z"/><path class="cls-2" d="M81.094,31.14h76.855a4.247,4.247,0,0,0,0-8.493H81.094a4.247,4.247,0,0,0,0,8.493Z"/><path class="cls-3" d="M117.543,45.011a4.243,4.243,0,0,0,4.238,4.247H212.2a4.247,4.247,0,0,0,0-8.493H121.781a4.242,4.242,0,0,0-4.238,4.246Z"/><path class="cls-4" d="M103.7,40.765H81.094a4.247,4.247,0,0,0,0,8.493H103.7a4.247,4.247,0,0,0,0-8.493Z"/><path class="cls-5" d="M22.322,33.405a4.243,4.243,0,0,0,4.238-4.247,7.064,7.064,0,1,1,7.064,7.078,4.246,4.246,0,0,0,0,8.492,15.57,15.57,0,1,0-15.54-15.57,4.243,4.243,0,0,0,4.238,4.247Z"/><path class="cls-6" d="M33.669,49.824h-.045a4.262,4.262,0,1,0,.045,0Z"/><path class="cls-7" d="M81.094,112.67h76.855a4.247,4.247,0,0,0,0-8.493H81.094a4.247,4.247,0,0,0,0,8.493Z"/><path class="cls-8" d="M198.637,122.3H121.781a4.247,4.247,0,0,0,0,8.493h76.856a4.247,4.247,0,0,0,0-8.493Z"/><path class="cls-9" d="M103.7,122.3H81.094a4.247,4.247,0,0,0,0,8.493H103.7a4.247,4.247,0,0,0,0-8.493Z"/><path class="cls-10" d="M33.624,95.118a15.572,15.572,0,0,0-15.54,15.57,4.238,4.238,0,1,0,8.476,0,7.064,7.064,0,1,1,7.064,7.077,4.247,4.247,0,0,0,0,8.493,15.57,15.57,0,0,0,0-31.14Z"/><path class="cls-11" d="M33.669,131.354h-.045a4.262,4.262,0,1,0,.045,0Z"/><path class="cls-12" d="M81.094,194.2h76.855a4.247,4.247,0,0,0,0-8.493H81.094a4.247,4.247,0,0,0,0,8.493Z"/><path class="cls-13" d="M203.158,203.825H121.781a4.246,4.246,0,0,0,0,8.492h81.377a4.246,4.246,0,0,0,0-8.492Z"/><path class="cls-14" d="M103.7,203.825H81.094a4.246,4.246,0,0,0,0,8.492H103.7a4.246,4.246,0,0,0,0-8.492Z"/><path class="cls-15" d="M33.624,176.648a15.573,15.573,0,0,0-15.54,15.57,4.238,4.238,0,1,0,8.476,0,7.064,7.064,0,1,1,7.064,7.077,4.247,4.247,0,0,0,0,8.493,15.57,15.57,0,0,0,0-31.14Z"/><path class="cls-16" d="M33.669,212.883h-.045a4.262,4.262,0,1,0,.045,0Z"/><path class="cls-17" d="M245.53,172.55a4.249,4.249,0,0,0-3.076,5.788l14.127,34.167-7.376,3.061L235.079,181.4a4.234,4.234,0,0,0-6.239-1.927l-7.881,5.175V136.793l33.818,33.883-9.247,1.874Zm-14.964,53.639a.283.283,0,0,1-.283.283H67.248v-54.92H212.482v20.955a4.238,4.238,0,0,0,6.562,3.552l10.163-6.674,1.359,3.288v33.516Zm-222.089,0V171.836a.283.283,0,0,1,.282-.284H58.772v54.92H8.759a.283.283,0,0,1-.282-.283Zm58.771-81.247V90.023H230.283a.283.283,0,0,1,.283.283v44.1l-10.849-10.869a4.237,4.237,0,0,0-7.235,3v18.4Zm-58.771-.283V90.306a.282.282,0,0,1,.282-.283H58.772v54.919H8.759a.283.283,0,0,1-.282-.283Zm258.939,29.834a4.252,4.252,0,0,0-1.06-4.228L239.043,142.9V90.306a8.778,8.778,0,0,0-8.76-8.776H8.759A8.777,8.777,0,0,0,0,90.306v54.353a8.776,8.776,0,0,0,8.759,8.775H212.482v9.626H8.759A8.777,8.777,0,0,0,0,171.836v54.353a8.777,8.777,0,0,0,8.759,8.776H230.283a8.778,8.778,0,0,0,8.76-8.776V213.176L243,222.738a4.234,4.234,0,0,0,5.537,2.3l15.208-6.311a4.25,4.25,0,0,0,2.294-5.549l-13.778-33.326L264.2,177.43a4.241,4.241,0,0,0,3.217-2.937Z"/></svg>