<svg id="Layer_1" data-name="Layer 1" xmlns="http://www.w3.org/2000/svg" xmlns:xlink="http://www.w3.org/1999/xlink" viewBox="0 0 243.853 243.835"><defs><style>.cls-1{fill:url(#Degradado_sin_nombre_13);}.cls-2{fill:url(#Degradado_sin_nombre_13-2);}.cls-3{fill:url(#Degradado_sin_nombre_13-3);}</style><linearGradient id="Degradado_sin_nombre_13" x1="134.442" y1="305.382" x2="104.382" y2="48.205" gradientUnits="userSpaceOnUse"><stop offset="0" stop-color="#003699"/><stop offset="0.152" stop-color="#2050bd"/><stop offset="0.307" stop-color="#3a66dc"/><stop offset="0.44" stop-color="#4a73ee"/><stop offset="0.534" stop-color="#5078f5"/><stop offset="0.759" stop-color="#7275f5"/><stop offset="0.998" stop-color="#9a72f6"/></linearGradient><linearGradient id="Degradado_sin_nombre_13-2" x1="152.454" y1="303.277" x2="122.394" y2="46.1" xlink:href="#Degradado_sin_nombre_13"/><linearGradient id="Degradado_sin_nombre_13-3" x1="142.136" y1="304.483" x2="112.076" y2="47.306" xlink:href="#Degradado_sin_nombre_13"/></defs><title>web</title><path class="cls-1" d="M44.5,234.31H9.525V159H44.5V234.31Zm199.33-76.995a18.318,18.318,0,0,0-30.774-12.387l-39.32,36.62a17.12,17.12,0,0,0-12.988-17.18L112.72,152.18a45.9,45.9,0,0,0-25.5.833l-33.2,10.779v-9.553a4.762,4.762,0,0,0-4.762-4.762H4.762A4.763,4.763,0,0,0,0,154.239v84.833a4.763,4.763,0,0,0,4.762,4.763h44.5a4.763,4.763,0,0,0,4.762-4.763V173.807l36.139-11.734a36.4,36.4,0,0,1,20.22-.661L158.4,173.6a7.713,7.713,0,0,1-1.9,15.189H123.029a4.763,4.763,0,0,0,0,9.525h10.26a4.664,4.664,0,0,0,.545.033h23.618a30.947,30.947,0,0,0,21.157-8.325L219.544,151.9a8.793,8.793,0,1,1,11.984,12.871l-56.391,52.495a20.883,20.883,0,0,1-14.273,5.615h-73.8a4.763,4.763,0,1,0,0,9.525h73.8a30.382,30.382,0,0,0,20.763-8.168l56.39-52.495a18.268,18.268,0,0,0,5.808-14.427Z"/><path class="cls-2" d="M121.917,9.525a33.34,33.34,0,0,1,8.334,65.62,4.761,4.761,0,0,0-3.571,4.61V91.914a4.763,4.763,0,1,1-9.525,0V71.436a4.767,4.767,0,0,1,4.762-4.762A23.812,23.812,0,1,0,98.105,42.862a4.763,4.763,0,0,1-9.525,0A33.375,33.375,0,0,1,121.917,9.525ZM93.343,57.149A14.3,14.3,0,0,0,107.63,42.862a14.288,14.288,0,1,1,14.287,14.287A14.3,14.3,0,0,0,107.63,71.436V91.914a14.288,14.288,0,1,0,28.575,0V83.277A42.864,42.864,0,1,0,79.056,42.862,14.3,14.3,0,0,0,93.343,57.149Z"/><path class="cls-3" d="M126.68,131.5a4.763,4.763,0,0,1-9.525,0,4.784,4.784,0,0,1,1.4-3.37,4.764,4.764,0,0,1,8.125,3.37ZM111.82,121.4a14.282,14.282,0,1,0,10.1-4.181,14.367,14.367,0,0,0-10.1,4.181Z"/></svg>