<svg xmlns="http://www.w3.org/2000/svg" xmlns:xlink="http://www.w3.org/1999/xlink" width="183.948" height="283.694" viewBox="0 0 183.948 283.694">
  <defs>
    <linearGradient id="linear-gradient" x1="0.771" y1="7.042" x2="0.569" y2="2.155" gradientUnits="objectBoundingBox">
      <stop offset="0" stop-color="#003699"/>
      <stop offset="0.534" stop-color="#5078f5"/>
      <stop offset="0.893" stop-color="#8873f5"/>
      <stop offset="0.998" stop-color="#9a72f6"/>
    </linearGradient>
    <linearGradient id="linear-gradient-2" x1="0.915" y1="11.457" x2="0.603" y2="3.218" xlink:href="#linear-gradient"/>
    <linearGradient id="linear-gradient-3" x1="0.739" y1="1.159" x2="0.387" y2="0.194" xlink:href="#linear-gradient"/>
    <linearGradient id="linear-gradient-4" x1="1.133" y1="3.84" x2="0.206" y2="-1.051" xlink:href="#linear-gradient"/>
    <linearGradient id="linear-gradient-5" x1="4.664" y1="3.579" x2="-4.546" y2="-3.232" xlink:href="#linear-gradient"/>
    <linearGradient id="linear-gradient-6" x1="1.408" y1="10.622" x2="0.574" y2="1.688" xlink:href="#linear-gradient"/>
    <linearGradient id="linear-gradient-7" x1="1.655" y1="12.962" x2="0.679" y2="2.745" xlink:href="#linear-gradient"/>
    <linearGradient id="linear-gradient-8" x1="2.294" y1="18.39" x2="0.894" y2="4.693" xlink:href="#linear-gradient"/>
    <linearGradient id="linear-gradient-9" x1="0.754" y1="0.636" x2="-8.456" y2="-4.298" xlink:href="#linear-gradient"/>
    <linearGradient id="linear-gradient-10" x1="1.055" y1="1.107" x2="-8.154" y2="-8.964" xlink:href="#linear-gradient"/>
  </defs>
  <g id="Grupo_53" data-name="Grupo 53" transform="translate(0.001 0)">
    <circle id="Elipse_7" data-name="Elipse 7" cx="91.974" cy="91.974" r="91.974" fill="#9a72f6" opacity="0.29"/>
    <g id="Grupo_52" data-name="Grupo 52" transform="translate(13.372 58.117)">
      <path id="Trazado_66" data-name="Trazado 66" d="M1226.4,1404.3H1094.1c-6.866,0-12.452,6.518-12.452,14.531s5.586,14.53,12.452,14.53h27.992a1.731,1.731,0,1,0,0-3.461H1094.1c-4.958,0-8.991-4.965-8.991-11.068s4.033-11.069,8.991-11.069h132.3c4.958,0,8.99,4.965,8.99,11.069s-4.033,11.068-8.99,11.068H1198.4a1.731,1.731,0,0,0,0,3.461H1226.4c6.866,0,12.452-6.518,12.452-14.53S1233.263,1404.3,1226.4,1404.3Z" transform="translate(-1081.645 -1404.295)" fill="url(#linear-gradient)"/>
      <path id="Trazado_67" data-name="Trazado 67" d="M1202.9,1425.356h-4.33a1.731,1.731,0,0,0,0,3.462h4.33a8.617,8.617,0,0,0,0-17.235h-84.975a8.617,8.617,0,1,0,0,17.235h4.33a1.731,1.731,0,1,0,0-3.462h-4.33a5.156,5.156,0,1,1,0-10.312H1202.9a5.156,5.156,0,0,1,0,10.312Z" transform="translate(-1081.809 -1404.338)" fill="url(#linear-gradient-2)"/>
      <path id="Trazado_68" data-name="Trazado 68" d="M1205.647,1475.773v-30.667a1.731,1.731,0,0,0-1.731-1.731h-22.7a1.731,1.731,0,1,0,0,3.462h20.971v28.353a30.289,30.289,0,0,1-25.577-17.292,1.731,1.731,0,1,0-3.133,1.471,33.76,33.76,0,0,0,28.71,19.283v76.467a33.755,33.755,0,0,0-31.827,31.833h-19.823a33.753,33.753,0,0,0-31.831-31.83v-76.47a33.717,33.717,0,0,0,27.54-17.02h0c.119-.212.238-.425.352-.638a1.731,1.731,0,1,0-3.05-1.637c-.1.192-.209.382-.316.572h0a30.251,30.251,0,0,1-24.527,15.261v-28.354h20.73a1.731,1.731,0,0,0,0-3.462h-22.46a1.73,1.73,0,0,0-1.731,1.731v143.578a1.73,1.73,0,0,0,1.731,1.731h86.942a1.731,1.731,0,0,0,1.731-1.731v-31.015a1.684,1.684,0,0,0,0-1.728V1478.19m-86.942,80.4a30.282,30.282,0,0,1,28.367,28.367h-28.367Zm55.117,28.367a30.279,30.279,0,0,1,28.363-28.363v28.363Z" transform="translate(-1081.844 -1404.526)" fill="url(#linear-gradient-3)"/>
      <path id="Trazado_69" data-name="Trazado 69" d="M1177.8,1517.246c0-8-7.71-14.516-17.188-14.516s-17.187,6.511-17.187,14.516,7.71,14.517,17.187,14.517S1177.8,1525.25,1177.8,1517.246Zm-17.188,11.054c-7.568,0-13.725-4.959-13.725-11.054s6.157-11.054,13.725-11.054,13.726,4.958,13.726,11.054S1168.181,1528.3,1160.612,1528.3Z" transform="translate(-1082.01 -1404.877)" fill="url(#linear-gradient-4)"/>
      <path id="Trazado_70" data-name="Trazado 70" d="M1158.973,1543.2v17.387a1.731,1.731,0,1,0,3.461,0V1543.2a1.731,1.731,0,0,0-3.461,0Z" transform="translate(-1082.102 -1405.106)" fill="url(#linear-gradient-5)"/>
      <path id="Trazado_71" data-name="Trazado 71" d="M1176.982,1457.676a1.731,1.731,0,1,0,2.014-2.815l-17.388-12.438c-.016-.011-.033-.018-.05-.029a1.758,1.758,0,0,0-.163-.094c-.048-.025-.093-.049-.142-.068a1.59,1.59,0,0,0-.16-.054,1.67,1.67,0,0,0-.163-.043c-.054-.011-.107-.015-.161-.021s-.111-.011-.168-.011-.111.006-.167.011-.107.01-.161.021a1.594,1.594,0,0,0-.163.043,1.432,1.432,0,0,0-.16.054c-.049.02-.1.045-.142.068a1.571,1.571,0,0,0-.164.094c-.016.01-.034.017-.05.028l-17.388,12.438a1.731,1.731,0,0,0,2.014,2.815l16.381-11.717Z" transform="translate(-1081.999 -1404.519)" fill="url(#linear-gradient-6)"/>
      <path id="Trazado_72" data-name="Trazado 72" d="M1144.613,1443.225a1.731,1.731,0,0,0,2.415.4l13.589-9.72,13.59,9.72a1.731,1.731,0,0,0,2.014-2.815l-14.6-10.441c-.016-.011-.033-.017-.049-.028a1.681,1.681,0,0,0-.165-.094c-.047-.025-.092-.049-.14-.069s-.108-.038-.163-.054-.106-.032-.161-.043a3.312,3.312,0,0,0-.328-.032,1.624,1.624,0,0,0-.17.012c-.054.005-.106.01-.158.02s-.111.028-.166.044-.106.032-.158.053-.1.045-.143.07a1.6,1.6,0,0,0-.162.093c-.017.012-.035.018-.051.029l-14.6,10.441A1.73,1.73,0,0,0,1144.613,1443.225Z" transform="translate(-1082.016 -1404.448)" fill="url(#linear-gradient-7)"/>
      <path id="Trazado_73" data-name="Trazado 73" d="M1150.988,1429.135a1.728,1.728,0,0,0,1.006-.323l8.652-6.189,8.653,6.189a1.731,1.731,0,1,0,2.014-2.815l-9.66-6.91c-.016-.011-.033-.018-.05-.029a1.758,1.758,0,0,0-.163-.094c-.048-.025-.093-.049-.142-.069a2.659,2.659,0,0,0-.323-.1c-.054-.011-.107-.015-.162-.021s-.11-.011-.166-.011a1.625,1.625,0,0,0-.17.012,1.442,1.442,0,0,0-.159.02,1.641,1.641,0,0,0-.165.043c-.053.017-.105.032-.158.054s-.1.045-.143.07a1.594,1.594,0,0,0-.162.092c-.017.011-.035.018-.051.029l-9.66,6.91a1.731,1.731,0,0,0,1.008,3.138Z" transform="translate(-1082.045 -1404.381)" fill="url(#linear-gradient-8)"/>
      <path id="Trazado_74" data-name="Trazado 74" d="M1155.846,1602.266a1.73,1.73,0,0,0-1.731,1.731v25.317a1.731,1.731,0,0,0,3.461,0V1604A1.731,1.731,0,0,0,1155.846,1602.266Z" transform="translate(-1082.074 -1405.466)" fill="url(#linear-gradient-9)"/>
      <path id="Trazado_75" data-name="Trazado 75" d="M1166.859,1602.266a1.73,1.73,0,0,0-1.731,1.731v10.639a1.731,1.731,0,1,0,3.461,0V1604A1.731,1.731,0,0,0,1166.859,1602.266Z" transform="translate(-1082.139 -1405.466)" fill="url(#linear-gradient-10)"/>
    </g>
  </g>
</svg>
