<svg xmlns="http://www.w3.org/2000/svg" xmlns:xlink="http://www.w3.org/1999/xlink" viewBox="0 0 238.92 446.67"><defs><style>.cls-1{isolation:isolate;}.cls-2{fill:url(#Degradado_sin_nombre_26);}.cls-3{fill:#fff;}.cls-4{fill:url(#Degradado_sin_nombre_25);}.cls-5{fill:url(#Degradado_sin_nombre_25-2);}.cls-6{mix-blend-mode:overlay;}</style><linearGradient id="Degradado_sin_nombre_26" x1="235.18" y1="493.08" x2="241.07" y2="10.58" gradientTransform="translate(-119.72 57.77)" gradientUnits="userSpaceOnUse"><stop offset="0" stop-color="#003699"/><stop offset="0.01" stop-color="#03389c"/><stop offset="0.1" stop-color="#1e4fbc"/><stop offset="0.2" stop-color="#3461d5"/><stop offset="0.3" stop-color="#446ee7"/><stop offset="0.41" stop-color="#4d76f2"/><stop offset="0.53" stop-color="#5078f5"/><stop offset="0.6" stop-color="#6077f5"/><stop offset="0.77" stop-color="#8074f6"/><stop offset="0.9" stop-color="#9373f6"/><stop offset="1" stop-color="#9a72f6"/></linearGradient><linearGradient id="Degradado_sin_nombre_25" x1="200.45" y1="-51.34" x2="200.53" y2="-41.45" gradientTransform="translate(-119.72 57.77)" gradientUnits="userSpaceOnUse"><stop offset="0" stop-color="#003699"/><stop offset="0.53" stop-color="#5078f5"/><stop offset="0.89" stop-color="#8873f6"/><stop offset="1" stop-color="#9a72f6"/></linearGradient><linearGradient id="Degradado_sin_nombre_25-2" x1="238.88" y1="-51.66" x2="238.96" y2="-41.77" xlink:href="#Degradado_sin_nombre_25"/></defs><title>IPHONES BUTTOMS</title><g class="cls-1"><g id="Layer_1" data-name="Layer 1"><rect class="cls-2" x="12.78" y="11.87" width="213.37" height="422.02"/><path class="cls-3" d="M213.17,0H25.75A25.75,25.75,0,0,0,0,25.75V420.91a25.75,25.75,0,0,0,25.75,25.76H213.17a25.75,25.75,0,0,0,25.75-25.76V25.75A25.75,25.75,0,0,0,213.17,0Zm13,420.91a13,13,0,0,1-13,13H25.75a13,13,0,0,1-13-13V25.75a13,13,0,0,1,13-13H62.46A18.29,18.29,0,0,0,79.85,25.44h80.33a18.27,18.27,0,0,0,17.38-12.66h35.61a13,13,0,0,1,13,13Z"/><circle class="cls-4" cx="80.79" cy="13.95" r="2.08"/><rect class="cls-5" x="93.67" y="12.78" width="51.11" height="1.87" rx="0.94"/><g class="cls-6"><path class="cls-3" d="M97.4,128A98,98,0,0,0,52.73,151.8a1.83,1.83,0,0,0-.57,1.26,1.76,1.76,0,0,0,.49,1.31A1.81,1.81,0,0,0,54,155a1.89,1.89,0,0,0,1.24-.5,94.9,94.9,0,0,1,16.9-12.56,93.75,93.75,0,0,1,26.09-10.33,1.81,1.81,0,0,0,1.37-2.19A1.82,1.82,0,0,0,97.4,128Z"/><path class="cls-3" d="M35.48,269.91a1.85,1.85,0,0,0-.86,1.1,1.86,1.86,0,0,0,1.77,2.3,2,2,0,0,0,.91-.24,1.9,1.9,0,0,0,.86-1.11,1.82,1.82,0,0,0-.18-1.39A1.88,1.88,0,0,0,35.48,269.91Z"/><path class="cls-3" d="M35.28,177.12a2.06,2.06,0,0,0,.91.24,1.83,1.83,0,0,0,.91-3.42,1.87,1.87,0,0,0-2.48.68,1.72,1.72,0,0,0-.18,1.38A1.83,1.83,0,0,0,35.28,177.12Z"/><path class="cls-3" d="M119.16,129.16a1.83,1.83,0,1,0,0-3.65,1.9,1.9,0,0,0-1.3.53,1.87,1.87,0,0,0-.53,1.3A1.84,1.84,0,0,0,119.16,129.16Z"/><path class="cls-3" d="M28.17,193.49a1.85,1.85,0,0,0-2.28,1.23,97.58,97.58,0,0,0-4.25,28.62v.2a98.85,98.85,0,0,0,2.46,21.74,1.84,1.84,0,0,0,1.79,1.43,1.34,1.34,0,0,0,.4-.06,1.81,1.81,0,0,0,1.37-2.19,94.69,94.69,0,0,1-2.37-20.94v-.18a94.2,94.2,0,0,1,4.09-27.57A1.84,1.84,0,0,0,28.17,193.49Z"/><path class="cls-3" d="M91.81,313.38A93.49,93.49,0,0,1,72.48,305a94.47,94.47,0,0,1-22-17.47,1.88,1.88,0,0,0-2.58-.09,1.81,1.81,0,0,0-.09,2.57,97.37,97.37,0,0,0,42.89,26.89,1.71,1.71,0,0,0,.53.1,1.82,1.82,0,0,0,1.75-1.3A1.85,1.85,0,0,0,91.81,313.38Z"/><path class="cls-3" d="M203.54,269.73a1.87,1.87,0,0,0-2.49.67,1.83,1.83,0,0,0,.66,2.49,1.86,1.86,0,0,0,.91.25,1.82,1.82,0,0,0,1.59-.91v0A1.82,1.82,0,0,0,203.54,269.73Z"/><path class="cls-3" d="M119.56,317.5a1.79,1.79,0,0,0-1.29.55,1.75,1.75,0,0,0-.53,1.28,1.81,1.81,0,0,0,.53,1.3,1.84,1.84,0,0,0,1.27.52h0a1.83,1.83,0,1,0,0-3.65Z"/><path class="cls-3" d="M202.42,176.84a2,2,0,0,0,.94-.25,1.85,1.85,0,0,0,.65-2.5s0,0,0,0a1.87,1.87,0,0,0-2.48-.64,1.8,1.8,0,0,0-.84,1.11,1.77,1.77,0,0,0,.18,1.39A1.81,1.81,0,0,0,202.42,176.84Z"/><path class="cls-3" d="M214.76,201.18a1.84,1.84,0,0,0-2.19-1.37,1.81,1.81,0,0,0-1.13.82,1.87,1.87,0,0,0-.24,1.37,94.14,94.14,0,0,1,2.43,20.94v.4a94.22,94.22,0,0,1-4.14,27.75,1.74,1.74,0,0,0,.13,1.39,1.7,1.7,0,0,0,1.07.87,1.6,1.6,0,0,0,.53.09,1.82,1.82,0,0,0,1.76-1.29,97.84,97.84,0,0,0,4.3-28.81v-.42A96.68,96.68,0,0,0,214.76,201.18Z"/><path class="cls-3" d="M168.08,138.43a97.19,97.19,0,0,0-20.09-8.7A1.86,1.86,0,0,0,145.7,131a1.82,1.82,0,0,0,1.21,2.26s0,0,0,0a92.83,92.83,0,0,1,19.26,8.33l.09,0s0,0,0,0a94,94,0,0,1,22,17.42,1.87,1.87,0,0,0,1.33.58,1.9,1.9,0,0,0,1.26-.49,1.85,1.85,0,0,0,.57-1.28,1.82,1.82,0,0,0-.5-1.31A98,98,0,0,0,168.08,138.43Z"/><path class="cls-3" d="M183.55,292.33a94,94,0,0,1-43.05,22.82,1.84,1.84,0,0,0-1.37,2.19,1.77,1.77,0,0,0,1.77,1.4,1.93,1.93,0,0,0,.42,0A97.81,97.81,0,0,0,186,295a1.79,1.79,0,0,0,.09-2.57A1.87,1.87,0,0,0,183.55,292.33Z"/></g></g></g></svg>