<svg id="Layer_1" data-name="Layer 1" xmlns="http://www.w3.org/2000/svg" viewBox="0 0 138.38 134.463"><defs><style>.cls-1{fill:#ebfeff;isolation:isolate;}.cls-2,.cls-3,.cls-4,.cls-5,.cls-6,.cls-7,.cls-8,.cls-9{fill:none;stroke-width:3px;}.cls-2,.cls-7{stroke:#6c75f5;}.cls-2,.cls-4,.cls-5,.cls-6,.cls-7,.cls-8,.cls-9{stroke-linecap:round;}.cls-2,.cls-5,.cls-6{stroke-linejoin:round;}.cls-3,.cls-5,.cls-9{stroke:#9a72f6;}.cls-4{stroke:#5678f5;}.cls-6{stroke:#6d75f5;}.cls-8{stroke:#9472f5;}</style></defs><title>web</title><g id="Grupo_28" data-name="Grupo 28"><circle id="Elipse_3" data-name="Elipse 3" class="cls-1" cx="38.201" cy="38.201" r="38.201"/><g id="Grupo_229" data-name="Grupo 229"><g id="Rect치ngulo_51" data-name="Rect치ngulo 51"><path class="cls-2" d="M121.6,83.631v17.587H1.6V67.547h107.69"/></g><g id="Enmascarar_grupo_1" data-name="Enmascarar grupo 1"><g id="Elipse_16" data-name="Elipse 16"><path class="cls-3" d="M34.568,45.764q-.114-1.3-.115-2.636a29.823,29.823,0,0,1,59.646,0,30.207,30.207,0,0,1-.151,3.024"/></g></g><path id="Trazado_549" data-name="Trazado 549" class="cls-4" d="M63.2,132.963S41.591,123.7,33.042,110.1"/><path id="Trazado_550" data-name="Trazado 550" class="cls-4" d="M62.837,132.963S84.446,123.7,93,110.1"/><g id="Elipse_15" data-name="Elipse 15"><circle class="cls-5" cx="123.101" cy="69.102" r="13.779"/></g><g id="Elipse_17" data-name="Elipse 17"><path class="cls-5" d="M49.65,45.8a15.689,15.689,0,1,1,29.958.186"/></g><path id="Trazado_552" data-name="Trazado 552" class="cls-6" d="M23.817,58.839V46.49h79.152V58.839"/><path id="Trazado_553" data-name="Trazado 553" class="cls-7" d="M32.954,84.382c.361.453,58.683,0,58.683,0"/><g id="Rect치ngulo_53" data-name="Rect치ngulo 53"><rect class="cls-2" x="16.882" y="82.063" width="5.404" height="5.404"/></g><path id="Trazado_554" data-name="Trazado 554" class="cls-8" d="M123.1,69.1v7.4"/><path id="Trazado_555" data-name="Trazado 555" class="cls-9" d="M123.1,62.181v3.335"/></g></g></svg>