<svg id="Layer_1" data-name="Layer 1" xmlns="http://www.w3.org/2000/svg" xmlns:xlink="http://www.w3.org/1999/xlink" viewBox="0 0 133.726 135.764"><defs><style>.cls-1{fill:#eafee6;}.cls-2{fill:url(#Degradado_sin_nombre_25);}.cls-3{fill:url(#Degradado_sin_nombre_25-2);}</style><linearGradient id="Degradado_sin_nombre_25" x1="78.555" y1="193.993" x2="81.904" y2="39.11" gradientUnits="userSpaceOnUse"><stop offset="0" stop-color="#003699"/><stop offset="0.534" stop-color="#5078f5"/><stop offset="0.893" stop-color="#8873f6"/><stop offset="0.998" stop-color="#9a72f6"/></linearGradient><linearGradient id="Degradado_sin_nombre_25-2" x1="95.059" y1="194.35" x2="98.408" y2="39.466" xlink:href="#Degradado_sin_nombre_25"/></defs><title>web</title><circle class="cls-1" cx="50.519" cy="58.651" r="50.519"/><path class="cls-2" d="M133.209,19.687a8.7,8.7,0,0,0-4.511-4.971L99.262.833A8.784,8.784,0,0,0,87.63,4.961L73.616,34.115,49.559,50.126a8.115,8.115,0,0,0-3.471,5.28L39.956,89.237a5.071,5.071,0,0,1-.408,1.269c-2.177,4.578-9.4,19.855-10.994,24.227l2.819,1.026c1.587-4.357,9.345-20.728,10.884-23.966a8.064,8.064,0,0,0,.651-2.021L49.04,55.941a5.1,5.1,0,0,1,2.181-3.318l25.8-17.169a5.072,5.072,0,0,1,5.918,8.23L71.065,52.891a8.069,8.069,0,0,0-1.642,11.037c5.008,7.12,11.28,21.237-2.975,35.8l2.143,2.1a39.017,39.017,0,0,0,5.727-7.335l12.719,6.684c-1.35,1.884-6.23,7.358-17.8,8.058l-1.409.086v1.148c-.813,1.922-7.293,15.2-11.61,23.976l2.692,1.324c7.785-15.83,10.485-21.471,11.421-23.6,13.639-1.129,18.728-8.474,19.632-9.975a8.663,8.663,0,0,0,1.373.124,8.793,8.793,0,0,0,2.785-.457A8.691,8.691,0,0,0,99.265,97.3l9.17-19.345a6.281,6.281,0,0,0,1.016.091,6.37,6.37,0,0,0,1.394-.155l13.077-2.926a6.314,6.314,0,0,0,3.125-10.6,6.323,6.323,0,0,0,2.8-10.683,6.323,6.323,0,0,0-4.13-11.866l-.165.037,7.326-15.454A8.7,8.7,0,0,0,133.209,19.687ZM97.983,3.546l29.436,13.883a5.716,5.716,0,0,1,2.866,7.348L90.472,6.007A5.773,5.773,0,0,1,97.983,3.546ZM96.554,96.01a5.76,5.76,0,0,1-7.884,2.631l-12.949-6.8q.57-1.213,1-2.41l3.183,1.794,1.473-2.614L77.6,86.478a25.381,25.381,0,0,0,.606-3.881L97.96,93.044Zm28.8-25.442a3.306,3.306,0,0,1-2.083,1.464L110.19,74.958a3.326,3.326,0,1,1-1.453-6.492l5.031-1.126h0l8.046-1.8a3.326,3.326,0,0,1,3.971,2.521A3.3,3.3,0,0,1,125.349,70.568Zm.842-9.082-5.031,1.126h0l-8.045,1.8a3.327,3.327,0,0,1-1.452-6.493l3.742-.837h0l9.335-2.089a3.326,3.326,0,0,1,1.453,6.492Zm.181-16.75a3.327,3.327,0,0,1,1.452,6.493l-3.741.837h0l-9.334,2.089a3.326,3.326,0,1,1-1.453-6.492Zm-13.732,0a6.293,6.293,0,0,0-2.978,10.726A6.314,6.314,0,0,0,107.876,65.6a6.316,6.316,0,0,0-2.2,11.177L99.246,90.331l-21-11.109c-.387-7.033-3.553-13.023-6.364-17.02A5.074,5.074,0,0,1,72.9,55.261l11.872-9.206a8.062,8.062,0,0,0-6.726-14.237L89.159,8.705l39.872,18.8-7.194,15.175Z"/><path class="cls-3" d="M112.721,35.709c-2.506.885-16.964,15.592-22.945,21.751l-4.663-5.609-2.307,1.918,6.8,8.179,1.162-1.2c8.423-8.707,21.122-21.358,22.951-22.207Z"/></svg>