<svg id="Layer_1" data-name="Layer 1" xmlns="http://www.w3.org/2000/svg" viewBox="0 0 322.39 322.39"><defs><style>.cls-1{fill:#5078f5;}.cls-2{fill:#fff;}</style></defs><title>web</title><circle class="cls-1" cx="161.195" cy="161.195" r="161.195"/><path class="cls-2" d="M208.994,173.348a2,2,0,0,0-2,2v64.98a12.413,12.413,0,0,1-12.4,12.4H122.048a12.413,12.413,0,0,1-12.4-12.4V88.415a12.414,12.414,0,0,1,12.4-12.4h72.546a12.405,12.405,0,0,1,12.374,11.873H184.881a2,2,0,0,0,0,4H228.53a2,2,0,0,0,0-4H210.968a16.409,16.409,0,0,0-16.374-15.873H122.048a16.419,16.419,0,0,0-16.4,16.4V240.328a16.419,16.419,0,0,0,16.4,16.4h72.546a16.419,16.419,0,0,0,16.4-16.4v-64.98A2,2,0,0,0,208.994,173.348Z"/><path class="cls-2" d="M222.941,162.015a1.962,1.962,0,0,0,1-.364,1.986,1.986,0,0,0,.8-1.453,11.371,11.371,0,0,0,2.478-7.086V115.8a11.44,11.44,0,0,0-11.428-11.428H153.354A11.44,11.44,0,0,0,141.926,115.8v37.311A11.365,11.365,0,0,0,144.4,160.2a1.987,1.987,0,0,0,.8,1.455,1.963,1.963,0,0,0,1.007.364,11.366,11.366,0,0,0,7.148,2.525h62.439A11.366,11.366,0,0,0,222.941,162.015Zm-.14-48.653a7.38,7.38,0,0,1,.42,2.439v37.311a7.363,7.363,0,0,1-.736,3.2l-19.25-26.01Zm-7.008-4.989a7.393,7.393,0,0,1,4.709,1.688l-35.929,31.111-35.928-31.111a7.393,7.393,0,0,1,4.709-1.688Zm-69.131,47.94a7.362,7.362,0,0,1-.736-3.2V115.8a7.38,7.38,0,0,1,.42-2.439L165.912,130.3Zm2.711,3.06,19.572-26.443,14.319,12.4a2,2,0,0,0,2.619,0l14.319-12.4,19.571,26.443a7.374,7.374,0,0,1-3.98,1.167H153.354A7.378,7.378,0,0,1,149.373,159.373Z"/><path class="cls-2" d="M168.864,91.888a2,2,0,0,0,0-4h-9.932a2,2,0,0,0,0,4Z"/><path class="cls-2" d="M205.283,175.361a2,2,0,0,0-2-2H185.222a2,2,0,1,0,0,4h18.061A2,2,0,0,0,205.283,175.361Z"/><path class="cls-2" d="M169.205,177.361a2,2,0,1,0,0-4h-9.663a2,2,0,0,0,0,4Z"/><path class="cls-2" d="M150.216,229.087a8.105,8.105,0,1,0,8.1-8.106A8.114,8.114,0,0,0,150.216,229.087Zm12.21,0a4.105,4.105,0,1,1-4.106-4.106A4.111,4.111,0,0,1,162.426,229.087Z"/><path class="cls-2" d="M201.226,209.55a2,2,0,0,0-2-2h-81.81a2,2,0,0,0,0,4h81.81A2,2,0,0,0,201.226,209.55Z"/></svg>