<svg id="Layer_1" data-name="Layer 1" xmlns="http://www.w3.org/2000/svg" viewBox="0 0 51.386 51.534"><defs><style>.cls-1{fill:#fff;}.cls-2{fill:#5078f5;}.cls-3{fill:#b778ff;}</style></defs><title>logo</title><polygon class="cls-1" points="5.198 46.336 5.198 34.445 0 34.445 0 46.336 0 51.534 5.198 51.534 17.089 51.534 17.089 46.336 5.198 46.336"/><polygon class="cls-1" points="46.188 5.198 46.188 17.089 51.386 17.089 51.386 5.198 51.386 0 46.188 0 34.297 0 34.297 5.198 46.188 5.198"/><path class="cls-2" d="M32.587,16.037H21.936v4.729h8.851V46.823H20.313v4.711H32.587a2.91,2.91,0,0,0,2.91-2.91V18.947A2.91,2.91,0,0,0,32.587,16.037Z"/><path class="cls-2" d="M2.91,16.037A2.91,2.91,0,0,0,0,18.947V32.074H4.71V20.766h9.865V16.037Z"/><path class="cls-3" d="M20.6,30.768V4.71H31.073V0H18.8a2.91,2.91,0,0,0-2.91,2.91V32.587A2.909,2.909,0,0,0,18.8,35.5H29.472V30.768Z"/><path class="cls-3" d="M46.676,19.459V30.768H36.812V35.5H48.476a2.909,2.909,0,0,0,2.91-2.909V19.459Z"/></svg>